name C:\Users\u0101727\Documents\MyRepositories\upper-imu-dc\Results\main_tracking\Case_19\kinematics.mot
datacolumns 10
datarows 33
range 4.83000000 5.15000000
endheader 
time	clav_prot	clav_elev	scapula_abduction	scapula_elevation	scapula_upward_rot	scapula_winging	plane_elv	shoulder_elv	axial_rot	
          4.83000000	        -27.19630045	          9.76311394	         -4.06519733	          0.07504937	         42.52325875	         -5.01837633	         89.96871487	         67.15757523	        -29.44667714	
          4.84000000	        -26.84266445	          9.70748367	         -4.06137946	          0.15928239	         41.75101422	         -4.80806729	         89.90787879	         66.66881891	        -29.24628357	
          4.85000000	        -26.48713562	          9.65700993	         -4.07187297	          0.25372996	         40.95658302	         -4.59248871	         89.81041947	         66.21167756	        -29.12381280	
          4.86000000	        -26.12986140	          9.61135099	         -4.09582258	          0.35836559	         40.14077456	         -4.37141228	         89.67445202	         65.78489857	        -29.08074899	
          4.87000000	        -25.77196544	          9.57059727	         -4.13088676	          0.47279783	         39.30848651	         -4.14566416	         89.50002154	         65.38391770	        -29.10528962	
          4.88000000	        -25.41511739	          9.53488500	         -4.17315923	          0.59606085	         38.46777566	         -3.91692294	         89.28867272	         65.00144066	        -29.17469712	
          4.89000000	        -25.06114764	          9.50395722	         -4.21769842	          0.72649421	         37.62823880	         -3.68736107	         89.04294146	         64.62869183	        -29.26022112	
          4.90000000	        -24.71184713	          9.47681651	         -4.25956001	          0.86175858	         36.79918278	         -3.45922631	         88.76595415	         64.25696188	        -29.33314589	
          4.91000000	        -24.36898919	          9.45162942	         -4.29496087	          0.99900928	         35.98819537	         -3.23449660	         88.46121792	         63.87892169	        -29.36991717	
          4.92000000	        -24.03449768	          9.42585857	         -4.32221889	          1.13515443	         35.20039266	         -3.01466715	         88.13251541	         63.48939238	        -29.35517069	
          4.93000000	        -23.71065971	          9.39650078	         -4.34227482	          1.26709536	         34.43832027	         -2.80066944	         87.78374785	         63.08551090	        -29.28242862	
          4.94000000	        -23.40035935	          9.36041441	         -4.35877984	          1.39191646	         33.70249234	         -2.59294242	         87.41869288	         62.66629168	        -29.15243682	
          4.95000000	        -23.10744549	          9.31476508	         -4.37810263	          1.50704524	         32.99242091	         -2.39164580	         87.04078851	         62.23175895	        -28.96978067	
          4.96000000	        -22.83749069	          9.25747231	         -4.41012541	          1.61037508	         32.30758294	         -2.19687755	         86.65304348	         61.78216162	        -28.73972299	
          4.97000000	        -22.59928227	          9.18746257	         -4.47082962	          1.70031041	         31.64773113	         -2.00871694	         86.25806431	         61.31777106	        -28.46717567	
          4.98000000	        -22.40682222	          9.10468051	         -4.58617654	          1.77572193	         31.01259910	         -1.82707970	         85.85813026	         60.83918272	        -28.15751869	
          4.99000000	        -22.27732022	          9.00973177	         -4.78844077	          1.83585709	         30.40168463	         -1.65158307	         85.45525479	         60.34749326	        -27.81688098	
          5.00000000	        -22.21348102	          8.90261509	         -5.08301817	          1.88035582	         29.81470112	         -1.48171877	         85.05120142	         59.84381793	        -27.44986480	
          5.01000000	        -22.18969291	          8.78226879	         -5.42240551	          1.90950328	         29.25250577	         -1.31742347	         84.64741352	         59.32831169	        -27.05542307	
          5.02000000	        -22.17946578	          8.64922279	         -5.75691301	          1.92440801	         28.71772174	         -1.15948067	         84.24465564	         58.79942749	        -26.62437681	
          5.03000000	        -22.17169822	          8.50638108	         -6.06503994	          1.92673388	         28.21421771	         -1.00925380	         83.84233781	         58.25417786	        -26.14184987	
          5.04000000	        -22.16324084	          8.35712979	         -6.34057501	          1.91817332	         27.74517114	         -0.86795955	         83.43797685	         57.68968855	        -25.59441151	
          5.05000000	        -22.15389561	          8.20368288	         -6.58448066	          1.90004981	         27.31073866	         -0.73589434	         83.02730932	         57.10532225	        -24.97840265	
          5.06000000	        -22.14570435	          8.04653804	         -6.80416323	          1.87325069	         26.90686384	         -0.61202874	         82.60526483	         56.50409011	        -24.30505768	
          5.07000000	        -22.14218306	          7.88481621	         -7.01167092	          1.83841199	         26.52590935	         -0.49416532	         82.16752840	         55.89255308	        -23.59983659	
          5.08000000	        -22.14628089	          7.71704455	         -7.21875158	          1.79617225	         26.15872241	         -0.37955916	         81.71201923	         55.27926694	        -22.89639447	
          5.09000000	        -22.15895155	          7.54203836	         -7.43280841	          1.74734815	         25.79712265	         -0.26570155	         81.23955144	         54.67247882	        -22.22801788	
          5.10000000	        -22.17918859	          7.35943635	         -7.65590821	          1.69290619	         25.43570186	         -0.15090619	         80.75331363	         54.07806716	        -21.62027183	
          5.11000000	        -22.20453229	          7.16964130	         -7.88531450	          1.63373627	         25.07239511	         -0.03450784	         80.25742145	         53.49842295	        -21.08728519	
          5.12000000	        -22.23154324	          6.97331642	         -8.11453484	          1.57033403	         24.70801293	          0.08327774	         79.75530744	         52.93237976	        -20.63164286	
          5.13000000	        -22.25631371	          6.77100300	         -8.33466744	          1.50263396	         24.34551444	          0.20158124	         79.24879872	         52.37572589	        -20.24627654	
          5.14000000	        -22.27505894	          6.56319338	         -8.53588243	          1.43012122	         23.98953697	          0.31901775	         78.73832100	         51.82186338	        -19.91676901	
          5.15000000	        -22.28573139	          6.35091686	         -8.71094609	          1.35227359	         23.64590560	          0.43380461	         78.22390751	         51.26274523	        -19.62387042	
